<svg width="48" height="48" viewBox="0 0 48 48" fill="none" xmlns="http://www.w3.org/2000/svg">
<path d="M33.5655 26.0842C36.775 24.558 39 21.2843 39 17.5C39 12.2618 34.7382 8 29.5 8C24.2618 8 20 12.2618 20 17.5C20 21.2843 22.225 24.558 25.4345 26.0842C19.4125 27.8467 15 33.416 15 40H17C17 33.1075 22.6075 27.5 29.5 27.5C36.3925 27.5 42 33.1075 42 40H44C44 33.416 39.5875 27.8465 33.5655 26.0842ZM22 17.5C22 13.3645 25.3645 10 29.5 10C33.6355 10 37 13.3645 37 17.5C37 21.6355 33.6355 25 29.5 25C25.3645 25 22 21.6355 22 17.5ZM16.4562 29.9125C16.8698 29.3775 17.3157 28.8682 17.7913 28.3875C17.1128 27.96 16.3887 27.6225 15.6307 27.3913C17.624 26.4145 19 24.365 19 22C19 18.6915 16.3085 16 13 16C9.6915 16 7 18.6915 7 22C7 24.3663 8.37725 26.4162 10.3717 27.3925C6.6875 28.5197 4 31.9515 4 36H6C6 32.14 9.14 29 13 29C14.2225 29 15.4062 29.315 16.4562 29.9125ZM9 22C9 19.7945 10.7945 18 13 18C15.2055 18 17 19.7945 17 22C17 24.2055 15.2055 26 13 26C10.7945 26 9 24.2055 9 22Z" fill="#9E2896"/>
</svg>
