<svg width="425" height="57" viewBox="0 0 425 57" fill="none" xmlns="http://www.w3.org/2000/svg">
<path d="M0.943359 0.527344H25.7466C32.2271 0.527344 37.1774 2.14746 40.5977 5.3877C43.6064 8.24219 45.1108 12.0225 45.1108 16.7285C45.1108 20.7917 44.0822 24.0448 42.0249 26.4878C41.0734 27.6193 40.0448 28.5065 38.939 29.1494C37.8589 29.7923 36.3674 30.4095 34.4644 31.001C37.1388 31.7982 39.1318 33.0326 40.4434 34.7041C41.7806 36.3499 42.8092 38.883 43.5293 42.3032C45.4323 50.3781 46.9624 55.1742 48.1196 56.6914V57H35.1587C33.7443 54.4541 32.3299 49.9281 30.9155 43.4219C30.2726 40.5417 29.2697 38.4972 27.9067 37.2886C26.5695 36.0542 24.6151 35.437 22.0435 35.437H13.4414V57H0.943359V0.527344ZM23.8564 26.0249C26.9424 26.0249 29.2568 25.2534 30.7998 23.7104C32.137 22.3732 32.8057 20.5216 32.8057 18.1558C32.8057 12.9868 30.1183 10.4023 24.7437 10.4023H13.4414V26.0249H23.8564ZM58.3418 0.527344H97.9961V10.7109H70.8398V23.4404H91.5156V32.8525H70.8398V46.8164H99.269V57H58.3418V0.527344ZM104.631 0.527344H118.209L131.401 41.686L144.517 0.527344H156.938L137.496 57H124.072L104.631 0.527344ZM164.845 0.527344H177.498V57H164.845V0.527344ZM192.194 0.527344H231.849V10.7109H204.692V23.4404H225.368V32.8525H204.692V46.8164H233.122V57H192.194V0.527344ZM239.679 0.527344H252.949L262.284 40.2588L273.239 0.527344H283.77L294.84 40.5674L304.6 0.527344H316.789L302.169 57H289.131L278.408 18.8501L267.414 57H254.222L239.679 0.527344ZM325.661 0.527344H365.315V10.7109H338.159V23.4404H358.835V32.8525H338.159V46.8164H366.588V57H325.661V0.527344ZM377.813 0.527344H402.617C409.097 0.527344 414.048 2.14746 417.468 5.3877C420.477 8.24219 421.981 12.0225 421.981 16.7285C421.981 20.7917 420.952 24.0448 418.895 26.4878C417.944 27.6193 416.915 28.5065 415.809 29.1494C414.729 29.7923 413.237 30.4095 411.334 31.001C414.009 31.7982 416.002 33.0326 417.313 34.7041C418.651 36.3499 419.679 38.883 420.399 42.3032C422.302 50.3781 423.833 55.1742 424.99 56.6914V57H412.029C410.614 54.4541 409.2 49.9281 407.786 43.4219C407.143 40.5417 406.14 38.4972 404.777 37.2886C403.44 36.0542 401.485 35.437 398.914 35.437H390.312V57H377.813V0.527344ZM400.727 26.0249C403.812 26.0249 406.127 25.2534 407.67 23.7104C409.007 22.3732 409.676 20.5216 409.676 18.1558C409.676 12.9868 406.988 10.4023 401.614 10.4023H390.312V26.0249H400.727Z" fill="url(#paint0_linear_1238_2494)"/>
<defs>
<linearGradient id="paint0_linear_1238_2494" x1="-6" y1="-5" x2="443" y2="-5" gradientUnits="userSpaceOnUse">
<stop stop-color="#942331"/>
<stop offset="0.0805757" stop-color="#AF1917"/>
<stop offset="0.15035" stop-color="#D51317"/>
<stop offset="0.237568" stop-color="#893275"/>
<stop offset="0.324785" stop-color="#61388D"/>
<stop offset="0.400374" stop-color="#3B4090"/>
<stop offset="0.45" stop-color="#1F3880"/>
<stop offset="0.515" stop-color="#2C2C72"/>
<stop offset="0.575" stop-color="#20559E"/>
<stop offset="0.625" stop-color="#20A2CB"/>
<stop offset="0.71" stop-color="#00A8CE"/>
<stop offset="0.78" stop-color="#69B269"/>
<stop offset="0.865" stop-color="#009D5A"/>
<stop offset="0.97" stop-color="#268B3E"/>
</linearGradient>
</defs>
</svg>
