<svg width="48" height="48" viewBox="0 0 48 48" fill="none" xmlns="http://www.w3.org/2000/svg">
<path d="M28.426 13.119C27.811 12.4075 26.9265 12 26 12H21V7.25C21 5.4275 19.5725 4 17.75 4H15.285L13.4812 11.9385C13.4344 12.1206 13.3482 12.2902 13.2289 12.4355C13.1095 12.5808 12.9598 12.6982 12.7902 12.7795L10.5553 13.6695C9.956 12.6743 8.81175 12 7.5 12C5.57 12 4 13.458 4 15.2502V25.7518C4 27.544 5.57 29.0018 7.5 29.0018C8.9245 29.0018 10.1507 28.2063 10.6962 27.0693C11.7077 27.4853 13.1002 28.0522 13.4835 28.1812C13.5587 28.2065 13.6457 28.2398 13.745 28.2775C14.409 28.53 15.645 29 17.6042 29H24.3547C25.9722 29 27.368 27.7863 27.5998 26.1873L29.215 15.8267C29.2856 15.3452 29.2517 14.8542 29.1155 14.3869C28.9794 13.9197 28.7442 13.4872 28.426 13.119V13.119ZM9 25.7515C9 26.441 8.32725 27.002 7.5 27.002C6.67275 27.002 6 26.441 6 25.7518V15.25C6 14.561 6.67275 14 7.5 14C8.32725 14 8.99975 14.561 8.99975 15.2502V25.7518L9 25.7515ZM27.2375 15.529L25.6225 25.8895C25.5307 26.5225 24.9857 27 24.355 27H17.6042C16.0122 27 15.038 26.6295 14.4558 26.4083C14.3449 26.3652 14.2332 26.3243 14.1208 26.2855C13.785 26.1725 12.2443 25.545 10.9998 25.0315V15.645L13.557 14.6267L13.6038 14.6067C14.0516 14.4022 14.4477 14.0994 14.7625 13.7208C15.0774 13.3422 15.3029 12.8976 15.4225 12.42L16.8815 6H17.75C18.4625 6 19 6.5375 19 7.25V14H26C26.3505 14 26.675 14.1517 26.9137 14.4275C27.0433 14.5773 27.1392 14.7531 27.195 14.9432C27.2509 15.1332 27.2654 15.3329 27.2375 15.529V15.529ZM40.5 19C39.255 19 38.1625 19.6088 37.542 20.5205C36.5052 20.0973 34.94 19.4633 34.527 19.3255C34.45 19.3 34.3613 19.266 34.2598 19.228C33.6415 18.9948 32.5335 18.5787 30.821 18.5105L30.5105 20.5025C32.0342 20.5278 32.981 20.8833 33.554 21.0993C33.6833 21.148 33.7965 21.1902 33.8945 21.223C34.2303 21.335 35.746 21.9467 37 22.4597V32.2593L34.4432 33.2885L34.3963 33.309C33.4895 33.7292 32.8282 34.532 32.5765 35.536L31.124 42H30.2785C29.5735 42 29 41.4065 29 40.6772V34H22.0513C21.6833 34 21.3453 33.8438 21.0998 33.5605C20.9732 33.4135 20.8798 33.2409 20.8258 33.0545C20.7719 32.8682 20.7588 32.6724 20.7873 32.4805L20.9955 31H18.9757L18.807 32.1987C18.7381 32.674 18.7722 33.1586 18.907 33.6195C19.0419 34.0805 19.2743 34.507 19.5885 34.8703C19.894 35.2241 20.272 35.5082 20.6969 35.7031C21.1219 35.898 21.5837 35.9993 22.0513 36H27V40.6772C27 42.5095 28.4707 44 30.2785 44H32.7243L34.522 35.9987C34.6185 35.6147 34.8712 35.3005 35.2175 35.133L37.4002 34.254C37.986 35.2905 39.1545 36 40.5 36C42.43 36 44 34.542 44 32.75V22.25C44 20.458 42.43 19 40.5 19ZM42 32.75C42 33.4392 41.3273 34 40.5 34C39.6727 34 39 33.4392 39 32.75V22.25C39 21.5608 39.6727 21 40.5 21C41.3273 21 42 21.5608 42 22.25V32.75Z" fill="#9E2896"/>
</svg>
